<svg width="50" height="50" viewBox="0 0 50 50" fill="none" xmlns="http://www.w3.org/2000/svg">
<path d="M6.72143 28.5331C16.633 28.5331 24.6679 20.6356 24.6679 10.8937C24.6679 8.05609 23.9862 5.37501 22.775 3C29.3565 5.61468 34 11.9546 34 19.3606C34 29.1026 25.9651 37 16.0536 37C9.02899 37 2.94705 33.0332 0 27.2542C2.07597 28.079 4.34475 28.5331 6.72143 28.5331Z" fill="url(#paint0_linear)"/>
<path d="M24.9048 31V30.9907C24.7706 30.9969 24.6357 31 24.5 31C19.8056 31 16 27.2716 16 22.6724C16 18.1265 19.718 14.4313 24.3373 14.3463C25.2446 10.7036 28.5977 8 32.5952 8C36.6008 8 39.9592 10.7145 40.8586 14.3682C41.0703 14.3527 41.2842 14.3448 41.5 14.3448C46.1944 14.3448 50 18.0732 50 22.6724C50 27.1387 46.4112 30.7837 41.9048 30.9907V31H24.9048Z" fill="url(#paint1_linear)"/>
<path d="M19 47V46.9883C18.8343 46.9961 18.6676 47 18.5 47C12.701 47 8 42.299 8 36.5C8 30.7682 12.5928 26.109 18.299 26.0019C19.4199 21.4089 23.5619 18 28.5 18C33.448 18 37.5967 21.4226 38.7077 26.0294C38.9692 26.0099 39.2335 26 39.5 26C45.299 26 50 30.701 50 36.5C50 42.1314 45.5668 46.7273 40 46.9883V47H19Z" fill="url(#paint2_linear)"/>
<defs>
<linearGradient id="paint0_linear" x1="16.0536" y1="1.72116" x2="16.0536" y2="37" gradientUnits="userSpaceOnUse">
<stop stop-color="#FFCF52"/>
<stop offset="1" stop-color="#FFA800"/>
</linearGradient>
<linearGradient id="paint1_linear" x1="33" y1="8" x2="33" y2="31" gradientUnits="userSpaceOnUse">
<stop stop-color="white" stop-opacity="0.98"/>
<stop offset="0.96875" stop-color="#D0D0D0" stop-opacity="0.82"/>
</linearGradient>
<linearGradient id="paint2_linear" x1="29" y1="18" x2="29" y2="47" gradientUnits="userSpaceOnUse">
<stop stop-color="white" stop-opacity="0.98"/>
<stop offset="0.96875" stop-color="#D0D0D0" stop-opacity="0.82"/>
</linearGradient>
</defs>
</svg>
